<?xml version="1.0" encoding="UTF-8"?>
<svg width="110px" height="25px" viewBox="0 0 110 25" version="1.1" xmlns="http://www.w3.org/2000/svg" xmlns:xlink="http://www.w3.org/1999/xlink" xml:space="preserve" preserveAspectRatio="xMidYMid meet">
    <!-- Generator: Sketch 53.2 (72643) - https://sketchapp.com -->
    <title>Candela</title>
    <desc>Created with Sketch.</desc>
    <g id="Iñigo" stroke="none" stroke-width="1" fill="none" fill-rule="evenodd">
        <g id="Contact-1" transform="translate(-786.000000, -36.000000)" fill="#424142" fill-rule="nonzero">
            <path d="M786.094057,49.188 C786.094057,42.66 790.854057,37.9 798.470057,37.9 C801.190057,37.9 803.366057,38.308 805.610057,38.954 L805.678057,43.612 L805.032057,43.612 C805.032057,43.612 804.250057,40.994 803.468057,40.212 C802.380057,39.43 800.816057,38.75 798.164057,38.75 C792.724057,38.75 789.562057,42.728 789.562057,48.542 C789.562057,55.172 793.404057,59.558 798.810057,59.558 C800.816057,59.558 802.312057,58.98 803.400057,58.096 C804.250057,57.382 805.440057,54.696 805.440057,54.696 L806.052057,54.73 L805.236057,59.184 C802.856057,60.034 800.816057,60.374 798.368057,60.374 C790.956057,60.374 786.094057,55.818 786.094057,49.188 Z M821.718041,59.218 L819.032041,60.544 C817.638041,60.374 816.822041,59.66 816.346041,58.81 L816.312041,58.81 L815.020041,59.422 C814.204041,59.83 813.184041,60.34 811.824041,60.34 C809.614041,60.34 808.220041,59.048 808.220041,57.314 C808.220041,55.954 808.968041,55.07 809.852041,54.628 C811.382041,53.88 814.136041,53.064 816.312041,52.452 L816.346041,49.29 C816.380041,47.318 815.394041,46.264 813.354041,46.264 C812.470041,46.264 811.926041,46.502 811.586041,46.74 L811.416041,48.338 L809.036041,49.188 C808.764041,49.188 808.594041,48.916 808.594041,48.644 C808.594041,48.44 808.696041,48.202 809.036041,47.862 C810.634041,46.298 813.218041,45.006 815.088041,45.006 C817.978041,45.006 819.134041,46.298 819.100041,48.338 L818.896041,57.654 L821.718041,59.218 Z M816.210041,57.926 L816.278041,53.064 L815.564041,53.302 C814.374041,53.676 813.354041,53.982 812.640041,54.288 C811.382041,54.832 811.042041,55.546 811.042041,56.6 C811.042041,58.164 811.994041,59.15 813.490041,59.15 C814.748041,59.15 815.938041,58.504 816.210041,57.926 Z M824.838024,47.454 L822.764024,46.74 L822.764024,46.672 L827.218024,44.836 L827.626024,44.836 L827.626024,47.114 L827.694024,47.114 C828.714024,46.434 831.094024,44.938 833.168024,44.938 C836.126024,44.938 837.248024,46.536 837.248024,49.392 L837.248024,58.742 L839.016024,59.932 L839.016024,60 L832.760024,60 L832.760024,59.932 L834.460024,58.742 L834.460024,49.732 C834.460024,47.76 833.032024,46.502 831.094024,46.502 C829.292024,46.502 828.068024,47.454 827.626024,47.998 L827.626024,58.742 L829.326024,59.932 L829.326024,60 L823.138024,60 L823.138024,59.932 L824.838024,58.742 L824.838024,47.454 Z M855.532008,36.03 L855.464008,39.226 L855.464008,58.504 L857.708008,58.81 L857.708008,58.878 L853.356008,60.51 L852.846008,60.374 L852.710008,58.436 L852.370008,58.64 C850.874008,59.558 848.902008,60.272 847.304008,60.272 C844.176008,60.272 841.184008,57.722 841.184008,53.166 C841.184008,47.93 844.992008,44.972 849.820008,44.972 C851.044008,44.972 852.030008,45.176 852.744008,45.38 L852.676008,38.41 L850.636008,37.696 L850.636008,37.628 L855.158008,36.03 L855.532008,36.03 Z M852.710008,57.45 L852.710008,50.854 C852.710008,47.488 851.282008,45.754 848.800008,45.754 C846.148008,45.754 844.244008,48.44 844.244008,52.146 C844.244008,56.09 846.488008,58.844 849.684008,58.844 C851.112008,58.844 852.268008,58.062 852.710008,57.45 Z M871.673992,50.208 L862.527992,49.936 C862.425992,50.514 862.391992,51.126 862.391992,51.704 C862.391992,55.308 864.193992,58.674 867.865992,58.674 C869.905992,58.674 871.027992,57.756 871.911992,56.77 L872.251992,57.314 C870.755992,58.946 868.851992,60.34 866.029992,60.34 C862.527992,60.34 859.569992,57.654 859.569992,53.166 C859.569992,48.202 862.799992,44.938 866.811992,44.938 C870.143992,44.938 871.945992,46.74 872.013992,49.664 L871.673992,50.208 Z M862.629992,49.358 L869.157992,49.358 L869.157992,49.222 C869.157992,47.352 868.239992,45.618 866.301992,45.618 C864.295992,45.618 863.071992,47.216 862.629992,49.358 Z M878.805976,58.742 L880.505976,59.932 L880.505976,60 L874.317976,60 L874.317976,59.932 L876.017976,58.742 L876.017976,38.41 L873.943976,37.662 L873.943976,37.628 L878.499976,36.03 L878.873976,36.03 L878.805976,39.158 L878.805976,58.742 Z M896.035959,59.218 L893.349959,60.544 C891.955959,60.374 891.139959,59.66 890.663959,58.81 L890.629959,58.81 L889.337959,59.422 C888.521959,59.83 887.501959,60.34 886.141959,60.34 C883.931959,60.34 882.537959,59.048 882.537959,57.314 C882.537959,55.954 883.285959,55.07 884.169959,54.628 C885.699959,53.88 888.453959,53.064 890.629959,52.452 L890.663959,49.29 C890.697959,47.318 889.711959,46.264 887.671959,46.264 C886.787959,46.264 886.243959,46.502 885.903959,46.74 L885.733959,48.338 L883.353959,49.188 C883.081959,49.188 882.911959,48.916 882.911959,48.644 C882.911959,48.44 883.013959,48.202 883.353959,47.862 C884.951959,46.298 887.535959,45.006 889.405959,45.006 C892.295959,45.006 893.451959,46.298 893.417959,48.338 L893.213959,57.654 L896.035959,59.218 Z M890.527959,57.926 L890.595959,53.064 L889.881959,53.302 C888.691959,53.676 887.671959,53.982 886.957959,54.288 C885.699959,54.832 885.359959,55.546 885.359959,56.6 C885.359959,58.164 886.311959,59.15 887.807959,59.15 C889.065959,59.15 890.255959,58.504 890.527959,57.926 Z" id="Candela"></path>
        </g>
    </g>
</svg>